<svg xmlns="http://www.w3.org/2000/svg" viewBox="0 0 477.85 389.67"><defs><style>.cls-1{fill:#153f1e;}.cls-2{font-size:73.84px;fill:#117b3e;font-family:Silom;}</style></defs><g id="Layer_2" data-name="Layer 2"><g id="Layer_1-2" data-name="Layer 1"><path class="cls-1" d="M153.22,213.76V100.19h27.2v101h40.71v12.57Z"/><path class="cls-1" d="M198.13,258V169.69a23.46,23.46,0,0,1,8.06-17.87,27.34,27.34,0,0,1,19.14-7.42h27.19a26.86,26.86,0,0,1,19.06,7.5q8,7.5,8,17.79V258h-27V207.55H225.33V258Zm27.2-63.15h27.19V169.69a11.86,11.86,0,0,0-4-9,13.73,13.73,0,0,0-9.69-3.71,13.51,13.51,0,0,0-9.52,3.71,11.86,11.86,0,0,0-4,9Z"/><path class="cls-1" d="M306.76,177.12h27v70.41q0,17.71-13.6,30.44a46.1,46.1,0,0,1-32.65,12.72H252.36V177.12h27.2v101h13.52a13.54,13.54,0,0,0,9.69-3.79,11.91,11.91,0,0,0,4-8.93Z"/><text class="cls-2" transform="translate(100.77 113.33) rotate(-35.55) scale(1.01 1)">L</text><text class="cls-2" transform="matrix(0.94, -0.38, 0.37, 0.93, 133.48, 89.29)">A</text><text class="cls-2" transform="translate(177.06 71.59) rotate(-9.26) scale(1.01 1)">V</text><text class="cls-2" transform="translate(223.79 64.09) rotate(1.58) scale(1.01 1)">L</text><text class="cls-2" transform="translate(264.87 64.64) rotate(12.63) scale(1.01 1)">A</text><text class="cls-2" transform="translate(310.81 74.49) rotate(25.69) scale(1.01 1)">V</text><text class="cls-2" transform="translate(352.91 94.54) rotate(40.16) scale(1.01 1)">L</text><text class="cls-2" transform="matrix(0.53, 0.86, -0.85, 0.53, 384.26, 119.2)">A</text><text class="cls-2" transform="translate(409.04 156.98) rotate(82.3) scale(1.01 1)">V</text><text class="cls-2" transform="matrix(-0.28, 0.97, -0.96, -0.28, 415.37, 201.48)">L</text><text class="cls-2" transform="translate(405.54 239.51) rotate(127.36) scale(1.01 1)">A</text><text class="cls-2" transform="matrix(-0.83, 0.57, -0.57, -0.82, 377.81, 276.24)">V</text><text class="cls-2" transform="matrix(-0.94, 0.36, -0.36, -0.93, 339.24, 302.71)">L</text><text class="cls-2" transform="translate(301.25 317.94) rotate(170.62) scale(1.01 1)">A</text><text class="cls-2" transform="translate(254.67 325.84) rotate(-177.81) scale(1.01 1)">V</text><text class="cls-2" transform="translate(207.41 324.02) rotate(-166.7) scale(1.01 1)">L</text><text class="cls-2" transform="matrix(-0.91, -0.44, 0.43, -0.9, 167.48, 315.31)">A</text><text class="cls-2" transform="matrix(-0.76, -0.66, 0.66, -0.75, 125.21, 295.84)">V</text><text class="cls-2" transform="translate(90.33 265.97) rotate(-120.52) scale(1.01 1)">L</text><text class="cls-2" transform="translate(68.97 233.08) rotate(-97.94) scale(1.01 1)">A</text><text class="cls-2" transform="matrix(0.3, -0.96, 0.95, 0.3, 61.75, 188.78)">V</text></g></g></svg>