<svg id="Layer_1" data-name="Layer 1" xmlns="http://www.w3.org/2000/svg" viewBox="0 0 481.62 390.9"><defs><style>.cls-1{fill:#153f1e;}.cls-2,.cls-3,.cls-4,.cls-5,.cls-6,.cls-7,.cls-8,.cls-9{isolation:isolate;fill:#117b3e;font-family:Silom;}.cls-2{font-size:73.84px;}.cls-3{font-size:73.91px;}.cls-4{font-size:73.97px;}.cls-5{font-size:73.74px;}.cls-6{font-size:73.64px;}.cls-7{font-size:73.65px;}.cls-8{font-size:73.77px;}.cls-9{font-size:73.56px;}</style></defs><g id="Layer_2" data-name="Layer 2"><g id="Layer_1-2" data-name="Layer 1-2"><path class="cls-1" d="M153.22,213.76V100.19h27.2v101h40.71v12.57Z" transform="translate(1.89 0.5)"/><path class="cls-1" d="M198.13,258V169.69a23.44,23.44,0,0,1,8.06-17.87,27.3,27.3,0,0,1,19.14-7.42h27.19a26.84,26.84,0,0,1,19.06,7.5q8,7.5,8,17.79V258h-27V207.55H225.33V258Zm27.2-63.15h27.19V169.69a11.89,11.89,0,0,0-4-9,13.71,13.71,0,0,0-9.69-3.71,13.48,13.48,0,0,0-9.52,3.71,11.89,11.89,0,0,0-4,9Z" transform="translate(1.89 0.5)"/><path class="cls-1" d="M306.76,177.12h27v70.41q0,17.71-13.6,30.44a46.12,46.12,0,0,1-32.65,12.72H252.36V177.12h27.2v101h13.52a13.54,13.54,0,0,0,9.69-3.79,11.91,11.91,0,0,0,4-8.93Z" transform="translate(1.89 0.5)"/><text class="cls-2" transform="translate(102.66 113.83) rotate(-35.55) scale(1.01 1)">L</text><text class="cls-3" transform="matrix(0.94, -0.38, 0.37, 0.93, 135.37, 89.78)">A</text><text class="cls-2" transform="translate(178.95 72.09) rotate(-9.26) scale(1.01 1)">V</text><text class="cls-2" transform="translate(225.68 64.59) rotate(1.58) scale(1.01 1)">L</text><text class="cls-2" transform="matrix(0.99, 0.22, -0.22, 0.98, 266.76, 65.14)">A</text><text class="cls-2" transform="matrix(0.91, 0.44, -0.43, 0.9, 312.7, 74.99)">V</text><text class="cls-2" transform="matrix(0.77, 0.65, -0.64, 0.76, 354.8, 95.04)">L</text><text class="cls-4" transform="matrix(0.53, 0.86, -0.85, 0.53, 386.15, 119.7)">A</text><text class="cls-2" transform="translate(410.93 157.48) rotate(82.3) scale(1.01 1)">V</text><text class="cls-2" transform="matrix(-0.28, 0.97, -0.96, -0.28, 417.26, 201.97)">L</text><text class="cls-2" transform="translate(407.43 240.01) rotate(127.36) scale(1.01 1)">A</text><text class="cls-5" transform="matrix(-0.83, 0.57, -0.57, -0.82, 379.7, 276.74)">V</text><text class="cls-6" transform="matrix(-0.94, 0.36, -0.36, -0.93, 341.13, 303.2)">L</text><text class="cls-2" transform="matrix(-1, 0.16, -0.16, -0.99, 303.14, 318.43)">A</text><text class="cls-2" transform="matrix(-1.01, -0.04, 0.04, -1, 256.56, 326.34)">V</text><text class="cls-2" transform="translate(209.3 324.52) rotate(-166.7) scale(1.01 1)">L</text><text class="cls-7" transform="matrix(-0.91, -0.44, 0.43, -0.9, 169.37, 315.81)">A</text><text class="cls-8" transform="matrix(-0.76, -0.66, 0.66, -0.75, 127.1, 296.34)">V</text><text class="cls-2" transform="matrix(-0.51, -0.87, 0.86, -0.51, 92.22, 266.46)">L</text><text class="cls-2" transform="translate(70.86 233.57) rotate(-97.94) scale(1.01 1)">A</text><text class="cls-9" transform="matrix(0.3, -0.96, 0.95, 0.3, 63.64, 189.28)">V</text></g></g></svg>